<svg version="1.1" xmlns="http://www.w3.org/2000/svg" xmlns:xlink="http://www.w3.org/1999/xlink" width="2880" height="1612"><defs/><g><rect fill="#FFFFFF" stroke="none" x="0" y="0" width="280" height="190"/><path fill="white" stroke="black" paint-order="fill stroke markers" d=" M 50.5 70.5 L 90.5 70.5 L 90.5 110.5 L 50.5 110.5 L 50.5 70.5 Z" stroke-miterlimit="10" stroke-width="3" stroke-dasharray=""/><path fill="none" stroke="none"/><text fill="black" stroke="none" font-family="Raleway" font-size="14px" font-style="normal" font-weight="normal" text-decoration="normal" x="40" y="95" text-anchor="end" dominant-baseline="alphabetic">x_1</text><path fill="none" stroke="none"/><text fill="green" stroke="none" font-family="Raleway" font-size="20px" font-style="normal" font-weight="normal" text-decoration="normal" x="70" y="95" text-anchor="middle" dominant-baseline="alphabetic">0</text><path fill="white" stroke="black" paint-order="fill stroke markers" d=" M 170.5 110.5 L 170.5 120.5 L 170.5 120.5 A 20 20 0 1 0 210.5 120.5 L 210.5 110.5 L 170.5 110.5 Z" stroke-miterlimit="10" stroke-width="3" stroke-dasharray=""/><path fill="white" stroke="black" paint-order="fill stroke markers" d=" M 150.5 50.5 L 170.5 50.5 L 170.5 70.5 L 150.5 70.5 L 150.5 50.5 Z" stroke-miterlimit="10" stroke-width="3" stroke-dasharray=""/><path fill="none" stroke="none"/><text fill="black" stroke="none" font-family="Raleway" font-size="14px" font-style="normal" font-weight="normal" text-decoration="normal" x="140" y="65" text-anchor="end" dominant-baseline="alphabetic">inp_0</text><path fill="none" stroke="none"/><path fill="none" stroke="none"/><text fill="green" stroke="none" font-family="Raleway" font-size="20px" font-style="normal" font-weight="normal" text-decoration="normal" x="160" y="65" text-anchor="middle" dominant-baseline="alphabetic">0</text><path fill="white" stroke="black" paint-order="fill stroke markers" d=" M 210.5 50.5 L 230.5 50.5 L 230.5 70.5 L 210.5 70.5 L 210.5 50.5 Z" stroke-miterlimit="10" stroke-width="3" stroke-dasharray=""/><path fill="none" stroke="none"/><text fill="black" stroke="none" font-family="Raleway" font-size="14px" font-style="normal" font-weight="normal" text-decoration="normal" x="240" y="65" text-anchor="start" dominant-baseline="alphabetic">inp_1</text><path fill="none" stroke="none"/><path fill="none" stroke="none"/><text fill="green" stroke="none" font-family="Raleway" font-size="20px" font-style="normal" font-weight="normal" text-decoration="normal" x="220" y="65" text-anchor="middle" dominant-baseline="alphabetic">0</text><path fill="none" stroke="green" paint-order="fill stroke markers" d=" M 170 60.5 L 180 60.5" stroke-linecap="round" stroke-miterlimit="10" stroke-width="3" stroke-dasharray=""/><path fill="none" stroke="green" paint-order="fill stroke markers" d=" M 180.5 60 L 180.5 110" stroke-linecap="round" stroke-miterlimit="10" stroke-width="3" stroke-dasharray=""/><path fill="none" stroke="green" paint-order="fill stroke markers" d=" M 210 60.5 L 200 60.5" stroke-linecap="round" stroke-miterlimit="10" stroke-width="3" stroke-dasharray=""/><path fill="none" stroke="green" paint-order="fill stroke markers" d=" M 200.5 60 L 200.5 110" stroke-linecap="round" stroke-miterlimit="10" stroke-width="3" stroke-dasharray=""/><path fill="green" stroke="none" paint-order="stroke fill markers" d=" M 183 110 A 3 3 0 1 1 182.99999850000012 109.9970000005 Z"/><path fill="green" stroke="none" paint-order="stroke fill markers" d=" M 203 110 A 3 3 0 1 1 202.99999850000012 109.9970000005 Z"/><path fill="green" stroke="none" paint-order="stroke fill markers" d=" M 193 140 A 3 3 0 1 1 192.99999850000012 139.9970000005 Z"/><path fill="green" stroke="none" paint-order="stroke fill markers" d=" M 173 60 A 3 3 0 1 1 172.99999850000012 59.9970000005 Z"/><path fill="green" stroke="none" paint-order="stroke fill markers" d=" M 183 60 A 3 3 0 1 1 182.99999850000012 59.9970000005 Z"/><path fill="green" stroke="none" paint-order="stroke fill markers" d=" M 213 60 A 3 3 0 1 1 212.99999850000012 59.9970000005 Z"/><path fill="green" stroke="none" paint-order="stroke fill markers" d=" M 203 60 A 3 3 0 1 1 202.99999850000012 59.9970000005 Z"/><path fill="green" stroke="none" paint-order="stroke fill markers" d=" M 93 90 A 3 3 0 1 1 92.99999850000013 89.9970000005 Z"/></g></svg>